<?xml version="1.0" standalone="no"?>
<!DOCTYPE svg PUBLIC "-//W3C//DTD SVG 20010904//EN"
 "http://www.w3.org/TR/2001/REC-SVG-20010904/DTD/svg10.dtd">
<svg version="1.0" xmlns="http://www.w3.org/2000/svg"
 width="200.000000pt" height="200.000000pt" viewBox="0 0 200.000000 200.000000"
 preserveAspectRatio="xMidYMid meet">
<metadata>
Created by potrace 1.11, written by Peter Selinger 2001-2013
</metadata>
<g transform="translate(0.000000,200.000000) scale(0.100000,-0.100000)"
fill="#000000" stroke="none">
<path d="M740 1637 c-32 -25 -50 -62 -50 -105 0 -37 6 -50 34 -78 29 -29 41
-34 81 -34 40 0 52 5 81 34 29 29 34 41 34 81 0 40 -5 52 -34 81 -29 29 -40
34 -82 34 -27 0 -56 -6 -64 -13z"/>
<path d="M1134 1632 c-31 -25 -44 -55 -44 -102 0 -34 6 -48 34 -76 29 -29 41
-34 80 -34 36 0 52 6 78 29 30 27 33 35 33 86 0 51 -3 59 -33 86 -26 23 -41
29 -80 29 -29 0 -55 -7 -68 -18z"/>
<path d="M501 1254 c-40 -33 -43 -89 -7 -131 l24 -28 454 -3 c249 -2 468 0
487 3 80 15 108 100 52 156 l-29 29 -475 0 -475 0 -31 -26z"/>
<path d="M495 885 c-19 -18 -25 -35 -25 -65 0 -30 6 -47 25 -65 l24 -25 486 0
486 0 24 25 c35 34 34 93 -1 129 l-27 26 -484 0 -484 0 -24 -25z"/>
<path d="M495 515 c-38 -37 -35 -95 6 -129 l31 -26 473 0 473 0 31 26 c41 34
44 92 6 129 l-24 25 -486 0 -486 0 -24 -25z"/>
</g>
</svg>
